<svg xmlns="http://www.w3.org/2000/svg" width="230" height="232" viewBox="0 0 230 232" fill="none">
  <path d="M114.069 20.9619C112.22 20.9619 110.453 21.9261 109.489 23.6139C99.4428 40.9727 99.4425 40.9727 99.4425 40.9727C96.6293 45.8749 96.6294 51.9827 99.5214 56.9653C161.402 164.172 161.402 164.172 161.402 164.172C164.295 169.155 169.599 172.208 175.306 172.208C195.316 172.208 195.316 172.208 195.316 172.208C198.29 172.208 200.7 169.797 200.7 166.824C200.7 165.86 200.379 164.976 199.977 164.172C118.728 23.6139 118.728 23.6139 118.728 23.6139C117.765 21.9261 115.995 20.9619 114.148 20.9619H114.069ZM89.3156 65.9662C86.9853 65.5644 84.7356 66.5286 83.5295 68.5378C28.3188 164.252 28.3195 164.252 28.3195 164.252C26.873 166.744 27.7579 170.039 30.3287 171.485C31.1328 171.967 32.0161 172.208 32.9807 172.208C52.9106 172.208 52.9112 172.208 52.9112 172.208C58.6174 172.208 63.921 169.155 66.814 164.172C102.817 101.889 102.817 101.889 102.817 101.889C105.63 96.9066 105.63 90.7989 102.817 85.8162C92.7724 68.5378 92.7721 68.5378 92.7721 68.5378C92.0479 67.252 90.7631 66.2876 89.3156 65.9662ZM113.346 110.89C111.738 111.131 110.292 112.096 109.489 113.462C102.094 126.32 102.095 126.32 102.095 126.32C100.247 129.454 100.889 133.392 103.622 135.803C143.964 171.485 143.964 171.485 143.964 171.485C144.526 171.967 145.25 172.208 145.973 172.208C148.143 172.208 149.831 170.44 149.831 168.351C149.831 167.708 149.67 166.985 149.349 166.422C118.729 113.462 118.73 113.462 118.73 113.462C117.605 111.533 115.516 110.569 113.346 110.89ZM96.6289 142.714C93.9773 142.956 91.5666 144.483 90.2009 146.813C80.1552 164.172 80.1549 164.172 80.1549 164.172C78.7084 166.744 79.5923 170.039 82.1641 171.485C82.9672 171.967 83.8524 172.208 84.8161 172.208C130.222 172.208 130.223 172.208 130.223 172.208C131.91 172.208 133.276 170.842 133.276 169.155C133.276 168.19 132.794 167.226 132.071 166.663C102.255 144.322 102.254 144.322 102.254 144.322C100.647 143.116 98.638 142.554 96.6289 142.714Z" fill="#412619"/>
  <path d="M52.1964 213.266L174.249 1" stroke="#803300" stroke-miterlimit="10" stroke-dasharray="5 5"/>
  <path d="M176.438 213.266L53.7676 1" stroke="#803300" stroke-miterlimit="10" stroke-dasharray="5 5"/>
  <path d="M219.919 198.625L105.683 1" stroke="#803300" stroke-miterlimit="10" stroke-dasharray="5 5"/>
  <path d="M189.73 213.266L67.1731 1" stroke="#803300" stroke-miterlimit="10" stroke-dasharray="5 5"/>
  <path d="M194.275 213.266L6.48987 72.6115" stroke="#803300" stroke-miterlimit="10" stroke-dasharray="5 5"/>
  <path d="M191.339 213.266L6.48987 49.9372" stroke="#803300" stroke-miterlimit="10" stroke-dasharray="5 5"/>
  <path d="M38.1549 213.266L160.772 1" stroke="#803300" stroke-miterlimit="10" stroke-dasharray="5 5"/>
  <path d="M6.48981 202.261L122.583 1" stroke="#803300" stroke-miterlimit="10" stroke-dasharray="5 5"/>
  <path d="M6.48987 172.269H219.919" stroke="#803300" stroke-miterlimit="10" stroke-dasharray="5 5"/>
  <path d="M114.13 218.827C168.752 218.827 213.032 174.547 213.032 119.924C213.032 65.3022 168.752 21.0222 114.13 21.0222C59.508 21.0222 15.2275 65.3022 15.2275 119.924C15.2275 174.547 59.508 218.827 114.13 218.827Z" stroke="#803300" stroke-linecap="square" stroke-dasharray="5 5"/>
  <path d="M106.502 189.547C121.65 189.547 133.93 177.267 133.93 162.118C133.93 146.97 121.65 134.689 106.502 134.689C91.3533 134.689 79.0734 146.97 79.0734 162.118C79.0734 177.267 91.3533 189.547 106.502 189.547Z" stroke="#803300" stroke-linecap="square" stroke-dasharray="5 5"/>
  <path d="M132.591 175.407C151.201 175.407 166.288 160.321 166.288 141.71C166.288 123.1 151.201 108.013 132.591 108.013C113.98 108.013 98.894 123.1 98.894 141.71C98.894 160.321 113.98 175.407 132.591 175.407Z" stroke="#803300" stroke-linecap="square" stroke-dasharray="5 5"/>
  <path d="M33.1166 172.098C36.0484 172.098 38.4255 169.721 38.4255 166.789C38.4255 163.858 36.0484 161.481 33.1166 161.481C30.1849 161.481 27.8088 163.858 27.8088 166.789C27.8088 169.721 30.1849 172.098 33.1166 172.098Z" stroke="#803300" stroke-linecap="square" stroke-dasharray="5 5"/>
  <path d="M54.6782 171.89C61.2306 171.89 66.5419 166.578 66.5419 160.026C66.5419 153.473 61.2306 148.162 54.6782 148.162C48.1257 148.162 42.8134 153.473 42.8134 160.026C42.8134 166.578 48.1257 171.89 54.6782 171.89Z" stroke="#803300" stroke-linecap="square" stroke-dasharray="5 5"/>
  <path d="M88.1962 76.6671C91.1135 76.6671 93.4781 74.3023 93.4781 71.385C93.4781 68.4678 91.1135 66.1028 88.1962 66.1028C85.279 66.1028 82.9144 68.4678 82.9144 71.385C82.9144 74.3023 85.279 76.6671 88.1962 76.6671Z" stroke="#803300" stroke-linecap="square" stroke-dasharray="5 5"/>
  <path d="M90.9021 107.912C98.6628 107.912 104.954 101.621 104.954 93.8598C104.954 86.0991 98.6628 79.8079 90.9021 79.8079C83.1414 79.8079 76.8501 86.0991 76.8501 93.8598C76.8501 101.621 83.1414 107.912 90.9021 107.912Z" stroke="#803300" stroke-linecap="square" stroke-dasharray="5 5"/>
  <path d="M114.219 31.7029C111.302 31.7029 108.937 29.3381 108.937 26.4208C108.937 23.5035 111.302 21.1385 114.219 21.1385C117.136 21.1385 119.501 23.5035 119.501 26.4208C119.501 29.3381 117.136 31.7029 114.219 31.7029Z" stroke="#803300" stroke-linecap="square" stroke-dasharray="5 5"/>
  <path d="M111.515 62.9476C103.755 62.9476 97.4634 56.6564 97.4634 48.8957C97.4634 41.135 103.755 34.8437 111.515 34.8437C119.276 34.8437 125.567 41.135 125.567 48.8957C125.567 56.6564 119.276 62.9476 111.515 62.9476Z" stroke="#803300" stroke-linecap="square" stroke-dasharray="5 5"/>
  <path d="M195.189 172.013C192.257 172.013 189.88 169.636 189.88 166.704C189.88 163.772 192.257 161.396 195.189 161.396C198.121 161.396 200.497 163.772 200.497 166.704C200.497 169.636 198.121 172.013 195.189 172.013Z" stroke="#803300" stroke-linecap="square" stroke-dasharray="5 5"/>
  <path d="M173.287 171.805C166.546 171.805 161.081 166.34 161.081 159.6C161.081 152.859 166.546 147.394 173.287 147.394C180.027 147.394 185.491 152.859 185.491 159.6C185.491 166.34 180.027 171.805 173.287 171.805Z" stroke="#803300" stroke-linecap="square" stroke-dasharray="5 5"/>
  <path d="M66.3353 184.423L56.5703 184.49L56.3695 197.279L50.3507 197.212C47.2736 197.168 44.9777 197.614 43.4614 198.55C41.9902 199.486 40.9873 201.002 40.452 203.098C39.9618 205.149 39.7163 208.181 39.7163 212.194C39.7163 215.538 40.0286 218.057 40.6523 219.751C41.3217 221.401 42.5927 222.605 44.4651 223.363C46.3826 224.076 49.2809 224.433 53.1598 224.433C54.8987 224.433 56.2811 224.41 57.3066 224.366L66.2676 224.032L66.3353 184.423ZM172.239 184.423L172.038 197.044H166.622V203.799H171.771L171.838 215.971C171.883 219.048 172.752 221.233 174.446 222.526C176.141 223.819 178.281 224.398 180.866 224.265L188.157 223.997L188.291 217.777L186.017 217.911C184.591 218 183.454 217.688 182.606 216.975C181.804 216.217 181.402 215.013 181.402 213.363V203.799H188.291V197.044H181.402L181.469 184.423H172.239ZM198.72 184.423C198.076 184.423 197.579 184.432 197.229 184.45L194.001 184.616V188.756L196.843 188.646L197.726 188.618C198.72 188.618 199.259 188.553 199.907 188.894C200.869 189.402 201.019 190.784 200.762 191.517C200.608 191.957 200.421 192.335 200.017 192.703C199.611 193.053 198.987 193.357 198.14 193.614C196.52 194.111 195.334 194.865 194.58 195.877C193.845 196.89 193.476 198.362 193.476 200.294V203.799H205.234V199.659H197.616C197.616 198.904 197.689 198.316 197.836 197.892C197.984 197.451 198.279 197.064 198.72 196.733C199.18 196.402 199.888 196.08 200.845 195.767C202.133 195.344 203.201 194.718 204.047 193.89C204.912 193.044 205.344 191.829 205.344 190.247C205.344 188.848 205.188 187.744 204.874 186.935C204.562 186.125 203.927 185.509 202.97 185.085C202.014 184.644 200.597 184.423 198.72 184.423ZM207.888 184.437L207.905 192.971C207.905 194.277 208.172 195.299 208.705 196.035C209.239 196.752 210.14 197.111 211.41 197.111H215.605V203.785H219.746V184.465H215.605V194.351H214.087C213.351 194.351 212.827 194.222 212.514 193.965C212.201 193.689 212.045 193.219 212.045 192.557L212.028 184.437H207.888ZM116.124 195.974C112.691 195.974 109.971 196.442 107.964 197.379C105.957 198.27 104.486 199.876 103.55 202.194C102.658 204.468 102.279 207.701 102.413 211.892C102.591 216.038 103.818 219.137 106.092 221.188C108.366 223.239 111.821 224.265 116.458 224.265C123.056 224.265 127.092 224.198 128.563 224.064V217.443C128.341 217.443 127.56 217.532 126.223 217.71C124.885 217.844 123.346 217.911 121.607 217.911C120.493 217.911 119.646 217.888 119.066 217.844C116.926 217.71 115.343 217.376 114.318 216.841C113.292 216.262 112.601 215.08 112.245 213.296C113.359 213.341 115.477 213.363 118.598 213.363C122.209 213.363 124.974 212.628 126.891 211.156C128.808 209.685 129.767 207.634 129.767 205.003C129.767 201.971 128.563 199.72 126.156 198.248C123.748 196.732 120.404 195.974 116.124 195.974ZM149.599 196.576C142.777 196.576 137.895 196.732 134.952 197.044V223.797H144.917V203.465C145.854 203.331 146.701 203.264 147.459 203.264C148.931 203.264 150 203.576 150.669 204.201C151.382 204.825 151.739 205.873 151.739 207.344V223.797H161.437V207.01C161.437 204.334 161.102 202.261 160.433 200.79C159.765 199.318 158.583 198.248 156.889 197.579C155.239 196.911 152.809 196.576 149.599 196.576ZM24.6314 197.111L9.1157 197.312V203.331L19.6153 202.93C21.6218 202.885 22.9595 203.086 23.6289 203.532C24.2971 203.933 24.6314 204.579 24.6314 205.471C24.6314 206.452 24.119 207.188 23.0935 207.678C22.068 208.169 20.1063 208.548 17.2079 208.815C13.1503 209.172 10.364 209.952 8.84827 211.156C7.33198 212.36 6.57404 214.054 6.57404 216.239C6.57404 218.156 6.95301 219.695 7.71088 220.854C8.46931 221.969 9.87376 222.816 11.9248 223.395C14.0203 223.93 16.9848 224.198 20.8198 224.198C22.4691 224.198 23.7626 224.176 24.6991 224.131L34.2621 223.797L34.5296 207.01C34.6192 200.366 31.3204 197.067 24.6314 197.111ZM71.5864 197.111C71.5414 198.137 71.5199 199.63 71.5199 201.592C71.5199 207.611 72.0544 212.204 73.125 215.37C74.195 218.535 76.0904 220.787 78.8103 222.125C81.5296 223.418 85.5201 224.064 90.7812 224.064C92.7427 224.064 94.8836 223.997 97.2023 223.864V197.111H87.1699V217.042C86.7242 217.131 86.3899 217.175 86.1667 217.175C84.5169 217.175 83.3132 216.061 82.5548 213.831C81.842 211.557 81.4846 208.057 81.4846 203.331C81.4846 200.7 81.5298 198.627 81.6188 197.111H71.5864ZM116.324 201.927C117.483 201.927 118.352 202.239 118.932 202.863C119.556 203.443 119.869 204.223 119.869 205.204C119.869 206.943 117.952 207.812 114.117 207.812C113.18 207.812 112.445 207.79 111.91 207.745C111.955 206.096 112.088 204.869 112.311 204.067C112.578 203.264 113.003 202.707 113.582 202.395C114.206 202.083 115.12 201.927 116.324 201.927ZM53.0255 203.968H56.5037V217.478H53.6952C52.2234 217.478 51.1527 217.322 50.4844 217.01C49.8601 216.653 49.4591 216.073 49.281 215.271C49.1024 214.424 49.013 213.108 49.013 211.325C49.013 209.14 49.0798 207.579 49.2133 206.643C49.3474 205.707 49.6817 205.038 50.217 204.636C50.7968 204.191 51.7329 203.968 53.0255 203.968ZM25.0997 212.761L25.0331 218.714L21.6897 218.981C18.1224 219.249 16.3384 218.29 16.3384 216.105C16.3384 214.589 17.5421 213.698 19.9498 213.43C22.9373 213.073 24.654 212.851 25.0997 212.761Z" fill="#412619"/>
  <path d="M1 196.845L194.125 196.65" stroke="#803300" stroke-linecap="square" stroke-dasharray="5 5"/>
  <path d="M1.06946 224.261L200.35 224.066" stroke="#803300" stroke-linecap="square" stroke-dasharray="5 5"/>
  <path d="M6.20654 171.997L6.40134 231.023" stroke="#803300" stroke-linecap="square" stroke-dasharray="5 5"/>
  <path d="M34.3141 171.997L34.5094 231.023" stroke="#803300" stroke-linecap="square" stroke-dasharray="5 5"/>
  <path d="M39.4324 171.948L39.6277 230.974" stroke="#803300" stroke-linecap="square" stroke-dasharray="5 5"/>
  <path d="M66.1096 171.997L66.3044 231.023" stroke="#803300" stroke-linecap="square" stroke-dasharray="5 5"/>
  <path d="M71.3799 171.997L71.5747 231.023" stroke="#803300" stroke-linecap="square" stroke-dasharray="5 5"/>
  <path d="M97.1498 171.802L97.3446 230.828" stroke="#803300" stroke-linecap="square" stroke-dasharray="5 5"/>
  <path d="M102.095 171.753L102.291 230.779" stroke="#803300" stroke-linecap="square" stroke-dasharray="5 5"/>
  <path d="M129.685 172.045L129.881 231.071" stroke="#803300" stroke-linecap="square" stroke-dasharray="5 5"/>
  <path d="M134.706 172.045L134.902 231.071" stroke="#803300" stroke-linecap="square" stroke-dasharray="5 5"/>
  <path d="M161.563 172.094L161.759 231.12" stroke="#803300" stroke-linecap="square" stroke-dasharray="5 5"/>
  <path d="M166.422 171.922L166.617 230.948" stroke="#803300" stroke-linecap="square" stroke-dasharray="5 5"/>
  <path d="M188.187 171.997L188.381 231.023" stroke="#803300" stroke-linecap="square" stroke-dasharray="5 5"/>
  <path d="M193.379 170.781L193.574 229.807" stroke="#803300" stroke-linecap="square" stroke-dasharray="5 5"/>
  <path d="M219.647 171.997L219.843 210.55" stroke="#803300" stroke-linecap="square" stroke-dasharray="5 5"/>
  <path d="M227.616 184.367L188.161 184.562" stroke="#803300" stroke-linecap="square" stroke-dasharray="5 5"/>
  <path d="M229 203.688L189.545 203.883" stroke="#803300" stroke-linecap="square" stroke-dasharray="5 5"/>
</svg>